<?xml version="1.0" encoding="UTF-8" standalone="no"?>
<!-- Created with Inkscape (http://www.inkscape.org/) -->

<svg
   xmlns:dc="http://purl.org/dc/elements/1.1/"
   xmlns:cc="http://creativecommons.org/ns#"
   xmlns:rdf="http://www.w3.org/1999/02/22-rdf-syntax-ns#"
   xmlns:svg="http://www.w3.org/2000/svg"
   xmlns="http://www.w3.org/2000/svg"
   version="1.1"
   width="229.09399"
   height="62.049"
   viewBox="0 0 229.09399 62.049"
   id="Слой_1"
   xml:space="preserve"><metadata
   id="metadata91"><rdf:RDF><cc:Work
       rdf:about=""><dc:format>image/svg+xml</dc:format><dc:type
         rdf:resource="http://purl.org/dc/dcmitype/StillImage" /><dc:title></dc:title></cc:Work></rdf:RDF></metadata><defs
   id="defs89" />
<g
   transform="matrix(0.56749419,0,0,0.56900002,-238.22385,-110.45189)"
   id="g3">
	<g
   id="g5">
		<path
   d="m 460.702,276.187 c -5.647,0 -10.945,-1.081 -15.895,-3.24 -4.95,-2.161 -9.278,-5.089 -12.98,-8.788 -3.704,-3.699 -6.638,-8.02 -8.8,-12.963 -2.164,-4.943 -3.245,-10.235 -3.245,-15.875 0,-5.637 1.081,-10.947 3.245,-15.928 2.162,-4.981 5.096,-9.319 8.8,-13.018 3.702,-3.699 8.03,-6.627 12.98,-8.788 4.949,-2.16 10.247,-3.242 15.895,-3.242 1.906,0 3.63,0.091 5.17,0.272 1.54,0.182 2.987,0.471 4.345,0.87 1.356,0.398 2.657,0.907 3.905,1.522 1.246,0.617 2.603,1.324 4.07,2.121 1.172,0.653 1.942,1.633 2.31,2.938 0.366,1.306 0.221,2.545 -0.439,3.718 -0.734,1.174 -1.743,1.944 -3.025,2.31 -1.284,0.368 -2.513,0.184 -3.685,-0.55 -1.174,-0.66 -2.238,-1.21 -3.19,-1.65 -0.954,-0.44 -1.907,-0.806 -2.86,-1.1 -0.953,-0.292 -1.943,-0.495 -2.97,-0.605 -1.027,-0.11 -2.237,-0.165 -3.63,-0.165 -4.328,0 -8.379,0.827 -12.155,2.48 -3.777,1.654 -7.059,3.893 -9.845,6.722 -2.788,2.829 -5.005,6.134 -6.655,9.917 -1.649,3.783 -2.475,7.841 -2.475,12.175 0,4.335 0.825,8.395 2.475,12.177 1.65,3.783 3.867,7.071 6.655,9.862 2.786,2.792 6.067,5.014 9.845,6.667 3.776,1.654 7.827,2.479 12.155,2.479 5.132,0 9.973,-1.179 14.521,-3.537 v -18.133 h -11 c -1.395,0 -2.568,-0.471 -3.521,-1.413 -0.954,-0.942 -1.43,-2.104 -1.43,-3.482 0,-1.305 0.476,-2.429 1.43,-3.371 0.952,-0.942 2.126,-1.415 3.521,-1.415 h 15.84 c 1.392,0 2.565,0.476 3.52,1.427 0.952,0.952 1.431,2.085 1.431,3.4 v 25.781 c 0,1.756 -0.771,3.109 -2.311,4.06 -6.75,4.244 -14.082,6.365 -22.002,6.365 z"
   id="path7"
   style="fill:#333535" />
		<path
   d="m 542.541,274.977 h -45.266 c -1.378,0 -2.538,-0.476 -3.48,-1.43 -0.943,-0.952 -1.414,-2.126 -1.414,-3.52 v -70.73 c 0,-1.392 0.471,-2.566 1.414,-3.52 0.942,-0.952 2.103,-1.43 3.48,-1.43 1.377,0 2.537,0.478 3.48,1.43 0.942,0.954 1.415,2.128 1.415,3.52 v 65.78 h 40.37 c 1.392,0 2.566,0.495 3.52,1.485 0.952,0.99 1.431,2.145 1.431,3.465 0,1.394 -0.479,2.568 -1.431,3.52 -0.953,0.954 -2.127,1.43 -3.519,1.43 z"
   id="path9"
   style="fill:#333535" />
		<path
   d="m 627.46,272.062 c -0.44,1.21 -1.284,2.109 -2.53,2.695 -1.247,0.586 -2.493,0.66 -3.739,0.22 -1.248,-0.44 -2.164,-1.282 -2.75,-2.53 l -8.69,-18.7 h -22.11 c -1.394,0 -2.549,-0.458 -3.465,-1.375 -0.918,-0.916 -1.375,-2.071 -1.375,-3.465 0,-1.32 0.457,-2.456 1.375,-3.41 0.916,-0.952 2.071,-1.43 3.465,-1.43 h 17.49 l -15.4,-33 -27.17,61.27 c -0.439,0.954 -1.063,1.669 -1.869,2.145 -0.809,0.478 -1.688,0.715 -2.641,0.715 -0.66,0 -1.32,-0.11 -1.979,-0.33 -1.248,-0.586 -2.109,-1.502 -2.585,-2.75 -0.477,-1.246 -0.422,-2.492 0.165,-3.74 l 31.569,-70.95 c 0.366,-0.88 0.952,-1.576 1.76,-2.09 0.807,-0.512 1.687,-0.77 2.641,-0.77 0.952,0 1.832,0.239 2.64,0.715 0.807,0.478 1.393,1.155 1.76,2.035 l 33.221,71.06 c 0.583,1.248 0.657,2.475 0.217,3.685 z"
   id="path11"
   style="fill:#333535" />
		<path
   d="m 711.39,275.307 c -1.1,0 -2.073,-0.33 -2.915,-0.99 -0.844,-0.66 -1.413,-1.54 -1.705,-2.64 l -12.54,-53.13 -13.75,53.13 c -0.294,1.028 -0.844,1.889 -1.649,2.585 -0.809,0.698 -1.725,1.045 -2.75,1.045 -1.028,0 -1.98,-0.312 -2.86,-0.935 -0.88,-0.623 -1.504,-1.447 -1.87,-2.475 l -16.39,-54.12 -11.44,53.79 c -0.294,1.248 -0.99,2.238 -2.09,2.97 -1.1,0.732 -2.274,0.952 -3.521,0.66 -1.247,-0.292 -2.237,-0.971 -2.97,-2.035 -0.732,-1.063 -0.952,-2.217 -0.66,-3.465 l 15.29,-71.94 c 0.293,-1.026 0.843,-1.87 1.65,-2.53 0.806,-0.66 1.76,-1.026 2.86,-1.1 1.025,-0.072 1.979,0.203 2.859,0.825 0.88,0.624 1.502,1.449 1.87,2.475 l 16.72,55.66 14.301,-55.55 c 0.292,-1.026 0.86,-1.851 1.704,-2.475 0.843,-0.622 1.815,-0.935 2.915,-0.935 h 0.11 c 1.026,0 1.961,0.33 2.805,0.99 0.843,0.66 1.411,1.504 1.705,2.53 l 16.83,71.94 c 0.366,1.248 0.201,2.403 -0.495,3.465 -0.697,1.064 -1.705,1.779 -3.024,2.145 -0.149,0.072 -0.479,0.11 -0.99,0.11 z"
   id="path13"
   style="fill:#333535" />
		<path
   d="m 729.539,275.527 c -1.395,0 -2.568,-0.476 -3.521,-1.43 -0.953,-0.952 -1.43,-2.126 -1.43,-3.52 v -71.5 c 0,-1.32 0.477,-2.457 1.43,-3.41 0.952,-0.952 2.126,-1.43 3.521,-1.43 1.319,0 2.456,0.478 3.41,1.43 0.952,0.954 1.43,2.09 1.43,3.41 v 71.5 c 0,1.394 -0.478,2.567 -1.43,3.52 -0.954,0.954 -2.091,1.43 -3.41,1.43 z"
   id="path15"
   style="fill:#333535" />
		<path
   d="m 782.777,275.307 c -5.574,0 -10.817,-1.063 -15.729,-3.19 -4.914,-2.126 -9.224,-5.022 -12.926,-8.69 -3.703,-3.666 -6.618,-7.956 -8.744,-12.87 -2.128,-4.913 -3.19,-10.192 -3.19,-15.84 0,-5.572 1.063,-10.835 3.19,-15.785 2.126,-4.95 5.041,-9.257 8.744,-12.925 3.702,-3.666 8.012,-6.562 12.926,-8.69 4.912,-2.126 10.155,-3.19 15.729,-3.19 5.572,0 10.835,1.064 15.785,3.19 4.95,2.128 9.276,5.024 12.98,8.69 3.702,3.668 6.617,7.975 8.744,12.925 2.127,4.95 3.19,10.212 3.19,15.785 0,5.648 -1.063,10.928 -3.19,15.84 -2.127,4.914 -5.042,9.204 -8.744,12.87 -3.704,3.668 -8.03,6.564 -12.98,8.69 -4.95,2.128 -10.212,3.19 -15.785,3.19 z m 0.055,-71.5 c -4.245,0 -8.235,0.808 -11.969,2.42 -3.733,1.614 -7.009,3.833 -9.828,6.655 -2.818,2.824 -5.032,6.105 -6.643,9.845 -1.61,3.74 -2.415,7.738 -2.415,11.99 0,4.254 0.805,8.25 2.415,11.99 1.61,3.74 3.824,7.022 6.643,9.845 2.819,2.824 6.095,5.043 9.828,6.655 3.733,1.614 7.724,2.42 11.969,2.42 4.246,0 8.235,-0.806 11.968,-2.42 3.733,-1.612 7.01,-3.831 9.828,-6.655 2.818,-2.822 5.032,-6.105 6.643,-9.845 1.611,-3.74 2.417,-7.736 2.417,-11.99 0,-4.252 -0.806,-8.25 -2.417,-11.99 -1.61,-3.74 -3.824,-7.021 -6.643,-9.845 -2.818,-2.822 -6.095,-5.041 -9.828,-6.655 -3.733,-1.612 -7.722,-2.42 -11.968,-2.42 z m 22.275,63.69 c -1.54,0 -2.788,-0.586 -3.74,-1.76 l -45.43,-55.22 c -0.808,-1.026 -1.155,-2.217 -1.045,-3.575 0.11,-1.356 0.677,-2.437 1.705,-3.245 1.026,-0.88 2.217,-1.246 3.575,-1.1 1.355,0.148 2.475,0.734 3.354,1.76 l 45.32,55.22 c 0.88,1.027 1.246,2.219 1.1,3.575 -0.147,1.358 -0.733,2.439 -1.76,3.245 -0.806,0.734 -1.832,1.1 -3.079,1.1 z"
   id="path17"
   style="fill:#333535" />
	</g>
	<g
   id="g19">
		<path
   d="m 432.168,293.552 c 0,4.407 -2.678,6.744 -5.945,6.744 -3.382,0 -5.757,-2.622 -5.757,-6.497 0,-4.065 2.527,-6.725 5.946,-6.725 3.496,0 5.756,2.678 5.756,6.478 z m -9.936,0.209 c 0,2.736 1.482,5.187 4.085,5.187 2.621,0 4.104,-2.413 4.104,-5.319 0,-2.546 -1.33,-5.205 -4.085,-5.205 -2.735,-10e-4 -4.104,2.525 -4.104,5.337 z"
   id="path21"
   style="fill:#333535" />
		<path
   d="m 440.567,286.77 v 1.14 c 2.697,0.114 5.395,1.748 5.395,5.775 0,4.027 -2.697,5.566 -5.414,5.718 v 1.197 h -1.596 v -1.197 c -2.679,-0.171 -5.396,-1.596 -5.396,-5.642 0,-4.198 2.964,-5.699 5.434,-5.851 v -1.14 h 1.577 z m -1.596,2.336 c -1.671,0.095 -3.704,1.254 -3.704,4.579 0,3.058 1.824,4.35 3.704,4.54 v -9.119 z m 1.577,9.119 c 1.843,-0.152 3.704,-1.387 3.704,-4.559 0,-3.287 -1.861,-4.464 -3.704,-4.56 v 9.119 z"
   id="path23"
   style="fill:#333535" />
		<path
   d="m 449.65,287.283 v 5.395 c 0,2.033 -0.038,3.705 -0.152,5.415 l 0.038,0.019 c 0.646,-1.33 1.443,-2.717 2.375,-4.236 l 4.141,-6.592 h 1.653 v 12.804 h -1.558 v -5.452 c 0,-2.071 0.019,-3.59 0.151,-5.205 l -0.057,-0.019 c -0.627,1.406 -1.501,2.887 -2.375,4.312 l -4.008,6.364 h -1.768 v -12.804 h 1.56 z"
   id="path25"
   style="fill:#333535" />
		<path
   d="M 462.246,287.283 V 298.7 h 5.87 v -11.417 h 1.672 v 11.456 l 1.12,0.038 -0.113,4.388 h -1.312 l -0.113,-3.078 h -8.777 v -12.804 h 1.653 z"
   id="path27"
   style="fill:#333535" />
		<path
   d="m 474.54,287.283 v 5.395 c 0,2.033 -0.038,3.705 -0.152,5.415 l 0.038,0.019 c 0.646,-1.33 1.443,-2.717 2.375,-4.236 l 4.141,-6.592 h 1.653 v 12.804 h -1.558 v -5.452 c 0,-2.071 0.019,-3.59 0.151,-5.205 l -0.057,-0.019 c -0.627,1.406 -1.501,2.887 -2.375,4.312 l -4.008,6.364 h -1.768 v -12.804 h 1.56 z"
   id="path29"
   style="fill:#333535" />
		<path
   d="m 487.554,296.06 -1.33,4.027 h -1.71 l 4.351,-12.804 h 1.995 l 4.369,12.804 h -1.767 l -1.368,-4.027 h -4.54 z m 4.198,-1.292 -1.254,-3.686 c -0.285,-0.836 -0.475,-1.596 -0.665,-2.336 h -0.038 c -0.189,0.76 -0.398,1.539 -0.646,2.318 l -1.254,3.704 h 3.857 z"
   id="path31"
   style="fill:#333535" />
		<path
   d="m 506.153,287.283 v 12.804 h -1.672 V 288.67 h -4.236 v 3.875 c 0,2.773 -0.113,5.87 -1.919,7.086 -0.475,0.304 -1.216,0.608 -1.956,0.608 l -0.209,-1.33 c 0.513,-0.095 1.045,-0.399 1.349,-0.684 1.025,-1.007 1.121,-3.496 1.121,-5.547 v -5.395 h 7.522 z"
   id="path33"
   style="fill:#333535" />
		<path
   d="m 510.677,287.283 v 4.788 c 0.38,-0.057 1.14,-0.095 1.576,-0.095 2.622,0 4.939,1.159 4.939,3.989 0,1.197 -0.38,2.071 -0.987,2.736 -1.045,1.102 -2.831,1.501 -4.598,1.501 -1.159,0 -2.032,-0.076 -2.584,-0.152 v -12.766 h 1.654 z m 0,11.531 c 0.38,0.076 0.798,0.095 1.367,0.095 1.843,0 3.42,-0.893 3.42,-2.85 0,-2.014 -1.614,-2.773 -3.438,-2.773 -0.418,0 -0.931,0.038 -1.349,0.095 v 5.433 z"
   id="path35"
   style="fill:#333535" />
		<path
   d="m 520.994,287.283 v 5.357 h 6.193 v -5.357 h 1.671 v 12.804 h -1.671 v -6.003 h -6.193 v 6.003 h -1.653 v -12.804 h 1.653 z"
   id="path37"
   style="fill:#333535" />
		<path
   d="m 533.382,287.283 v 4.788 c 0.38,-0.057 1.102,-0.095 1.52,-0.095 2.641,0 4.939,1.159 4.939,4.008 0,1.178 -0.38,2.052 -0.988,2.717 -1.045,1.102 -2.83,1.501 -4.559,1.501 -1.141,0 -2.014,-0.076 -2.565,-0.152 v -12.766 h 1.653 z m 0,11.531 c 0.342,0.076 0.76,0.095 1.33,0.095 1.823,0 3.4,-0.931 3.4,-2.869 0,-1.995 -1.71,-2.754 -3.42,-2.754 -0.607,0 -1.102,0.057 -1.311,0.095 v 5.433 z m 9.556,-11.531 v 12.804 h -1.672 v -12.804 h 1.672 z"
   id="path39"
   style="fill:#333535" />
		<path
   d="m 547.461,287.283 v 5.395 c 0,2.033 -0.038,3.705 -0.152,5.415 l 0.038,0.019 c 0.646,-1.33 1.443,-2.717 2.375,-4.236 l 4.141,-6.592 h 1.653 v 12.804 h -1.558 v -5.452 c 0,-2.071 0.019,-3.59 0.151,-5.205 l -0.057,-0.019 c -0.627,1.406 -1.501,2.887 -2.375,4.312 l -4.008,6.364 h -1.768 v -12.804 h 1.56 z m 2.089,-2.679 c 0.076,0.589 0.267,1.178 1.159,1.178 0.874,0 1.083,-0.551 1.159,-1.178 h 1.272 c -0.095,1.254 -0.854,2.033 -2.47,2.033 -1.558,0 -2.299,-0.779 -2.394,-2.033 h 1.274 z"
   id="path41"
   style="fill:#333535" />
		<path
   d="m 571.684,287.283 v 12.804 h -1.652 V 288.67 h -5.946 v 11.417 h -1.653 v -12.804 h 9.251 z"
   id="path43"
   style="fill:#333535" />
		<path
   d="m 576.644,296.06 -1.33,4.027 h -1.71 l 4.351,-12.804 h 1.995 l 4.369,12.804 h -1.767 l -1.368,-4.027 h -4.54 z m 4.198,-1.292 -1.254,-3.686 c -0.285,-0.836 -0.475,-1.596 -0.665,-2.336 h -0.038 c -0.189,0.76 -0.398,1.539 -0.646,2.318 l -1.254,3.704 h 3.857 z"
   id="path45"
   style="fill:#333535" />
		<path
   d="m 586.201,287.435 c 0.798,-0.133 1.843,-0.247 3.173,-0.247 1.634,0 2.831,0.38 3.591,1.063 0.703,0.608 1.12,1.539 1.12,2.679 0,1.159 -0.342,2.071 -0.987,2.736 -0.874,0.931 -2.299,1.406 -3.913,1.406 -0.494,0 -0.95,-0.019 -1.33,-0.114 v 5.129 h -1.653 v -12.652 z m 1.653,6.174 c 0.36,0.095 0.816,0.133 1.367,0.133 1.995,0 3.211,-0.969 3.211,-2.735 0,-1.691 -1.196,-2.508 -3.021,-2.508 -0.722,0 -1.272,0.057 -1.558,0.133 v 4.977 z"
   id="path47"
   style="fill:#333535" />
		<path
   d="m 598.74,288.688 h -3.894 v -1.406 h 9.479 v 1.406 h -3.914 v 11.398 h -1.672 v -11.398 z"
   id="path49"
   style="fill:#333535" />
		<path
   d="m 607.405,287.283 v 5.357 h 6.193 v -5.357 h 1.671 v 12.804 h -1.671 v -6.003 h -6.193 v 6.003 h -1.653 v -12.804 h 1.653 z"
   id="path51"
   style="fill:#333535" />
		<path
   d="m 624.771,294.084 h -4.978 v 4.616 h 5.547 v 1.387 h -7.2 v -12.804 h 6.915 v 1.387 h -5.262 v 4.046 h 4.978 v 1.368 z"
   id="path53"
   style="fill:#333535" />
		<path
   d="m 627.487,287.435 c 0.798,-0.133 1.843,-0.247 3.173,-0.247 1.634,0 2.831,0.38 3.591,1.063 0.703,0.608 1.12,1.539 1.12,2.679 0,1.159 -0.342,2.071 -0.987,2.736 -0.874,0.931 -2.299,1.406 -3.913,1.406 -0.494,0 -0.95,-0.019 -1.33,-0.114 v 5.129 h -1.653 v -12.652 z m 1.654,6.174 c 0.36,0.095 0.816,0.133 1.367,0.133 1.995,0 3.211,-0.969 3.211,-2.735 0,-1.691 -1.196,-2.508 -3.021,-2.508 -0.722,0 -1.272,0.057 -1.558,0.133 v 4.977 z"
   id="path55"
   style="fill:#333535" />
		<path
   d="m 650.571,299.669 c -0.608,0.304 -1.824,0.608 -3.382,0.608 -3.609,0 -6.326,-2.28 -6.326,-6.478 0,-4.008 2.717,-6.725 6.688,-6.725 1.596,0 2.603,0.342 3.039,0.57 l -0.398,1.349 c -0.627,-0.304 -1.52,-0.532 -2.584,-0.532 -3.001,0 -4.996,1.919 -4.996,5.281 0,3.135 1.805,5.148 4.92,5.148 1.007,0 2.033,-0.209 2.698,-0.532 l 0.341,1.311 z"
   id="path57"
   style="fill:#333535" />
		<path
   d="m 654.79,296.06 -1.33,4.027 h -1.71 l 4.351,-12.804 h 1.995 l 4.369,12.804 h -1.767 l -1.368,-4.027 h -4.54 z m 4.198,-1.292 -1.254,-3.686 c -0.285,-0.836 -0.475,-1.596 -0.665,-2.336 h -0.038 c -0.189,0.76 -0.398,1.539 -0.646,2.318 l -1.254,3.704 h 3.857 z"
   id="path59"
   style="fill:#333535" />
		<path
   d="m 673.39,287.283 v 12.804 h -1.672 V 288.67 h -4.236 v 3.875 c 0,2.773 -0.113,5.87 -1.919,7.086 -0.475,0.304 -1.216,0.608 -1.956,0.608 l -0.209,-1.33 c 0.513,-0.095 1.045,-0.399 1.349,-0.684 1.025,-1.007 1.121,-3.496 1.121,-5.547 v -5.395 h 7.522 z"
   id="path61"
   style="fill:#333535" />
		<path
   d="m 687.202,293.552 c 0,4.407 -2.678,6.744 -5.945,6.744 -3.382,0 -5.757,-2.622 -5.757,-6.497 0,-4.065 2.527,-6.725 5.946,-6.725 3.496,0 5.756,2.678 5.756,6.478 z m -9.935,0.209 c 0,2.736 1.482,5.187 4.085,5.187 2.621,0 4.104,-2.413 4.104,-5.319 0,-2.546 -1.33,-5.205 -4.085,-5.205 -2.736,-10e-4 -4.104,2.525 -4.104,5.337 z"
   id="path63"
   style="fill:#333535" />
		<path
   d="m 691.004,287.283 v 5.357 h 6.193 v -5.357 h 1.671 v 12.804 h -1.671 v -6.003 h -6.193 v 6.003 h -1.653 v -12.804 h 1.653 z"
   id="path65"
   style="fill:#333535" />
		<path
   d="m 703.392,287.283 v 5.357 h 6.193 v -5.357 h 1.671 v 12.804 h -1.671 v -6.003 h -6.193 v 6.003 h -1.653 v -12.804 h 1.653 z"
   id="path67"
   style="fill:#333535" />
		<path
   d="m 715.779,287.283 v 4.788 c 0.38,-0.057 1.102,-0.095 1.52,-0.095 2.641,0 4.939,1.159 4.939,4.008 0,1.178 -0.38,2.052 -0.988,2.717 -1.045,1.102 -2.83,1.501 -4.559,1.501 -1.141,0 -2.014,-0.076 -2.565,-0.152 v -12.766 h 1.653 z m 0,11.531 c 0.342,0.076 0.76,0.095 1.33,0.095 1.823,0 3.4,-0.931 3.4,-2.869 0,-1.995 -1.71,-2.754 -3.42,-2.754 -0.607,0 -1.102,0.057 -1.311,0.095 v 5.433 z m 9.556,-11.531 v 12.804 h -1.672 v -12.804 h 1.672 z"
   id="path69"
   style="fill:#333535" />
		<path
   d="m 735.311,300.087 -1.634,-2.831 c -0.665,-1.083 -1.083,-1.786 -1.482,-2.527 h -0.038 c -0.36,0.741 -0.722,1.425 -1.387,2.546 l -1.538,2.812 h -1.9 l 3.914,-6.478 -3.762,-6.326 h 1.919 l 1.69,3.001 c 0.475,0.836 0.836,1.482 1.178,2.166 h 0.057 c 0.361,-0.76 0.685,-1.349 1.159,-2.166 l 1.748,-3.001 h 1.899 l -3.895,6.231 3.989,6.573 h -1.917 z"
   id="path71"
   style="fill:#333535" />
		<path
   d="m 750.358,287.283 v 1.387 h -5.528 v 3.438 c 0.398,-0.057 1.159,-0.095 1.576,-0.095 1.216,0 2.413,0.266 3.306,0.855 0.969,0.627 1.634,1.634 1.634,3.134 0,1.197 -0.398,2.109 -1.063,2.774 -1.045,1.025 -2.773,1.425 -4.521,1.425 -1.159,0 -2.032,-0.076 -2.584,-0.152 v -12.766 h 7.18 z m -5.528,11.531 c 0.38,0.076 0.816,0.095 1.387,0.095 1.025,0 2.07,-0.323 2.697,-0.988 0.438,-0.456 0.703,-1.083 0.703,-1.881 0,-0.988 -0.418,-1.653 -1.045,-2.09 -0.665,-0.456 -1.52,-0.646 -2.432,-0.646 -0.38,0 -0.893,0.038 -1.311,0.076 v 5.434 z"
   id="path73"
   style="fill:#333535" />
		<path
   d="m 753.513,287.435 c 0.798,-0.133 1.843,-0.247 3.173,-0.247 1.634,0 2.831,0.38 3.591,1.063 0.703,0.608 1.12,1.539 1.12,2.679 0,1.159 -0.342,2.071 -0.987,2.736 -0.874,0.931 -2.299,1.406 -3.913,1.406 -0.494,0 -0.95,-0.019 -1.33,-0.114 v 5.129 h -1.653 v -12.652 z m 1.653,6.174 c 0.36,0.095 0.816,0.133 1.367,0.133 1.995,0 3.211,-0.969 3.211,-2.735 0,-1.691 -1.196,-2.508 -3.021,-2.508 -0.722,0 -1.272,0.057 -1.558,0.133 v 4.977 z"
   id="path75"
   style="fill:#333535" />
		<path
   d="m 770.252,294.084 h -4.978 v 4.616 h 5.547 v 1.387 h -7.2 v -12.804 h 6.915 v 1.387 h -5.262 v 4.046 h 4.978 v 1.368 z"
   id="path77"
   style="fill:#333535" />
		<path
   d="m 774.622,287.283 v 5.357 h 6.193 v -5.357 h 1.671 v 12.804 h -1.671 v -6.003 h -6.193 v 6.003 h -1.653 v -12.804 h 1.653 z"
   id="path79"
   style="fill:#333535" />
		<path
   d="m 794.114,287.283 v 11.456 l 1.121,0.038 -0.114,4.388 h -1.291 l -0.114,-3.078 h -8.074 l -0.113,3.078 h -1.292 l -0.114,-4.388 0.969,-0.038 c 0.475,-0.874 0.95,-1.805 1.254,-2.812 0.437,-1.482 0.607,-3.192 0.607,-5.396 v -3.249 h 7.161 z m -5.623,3.78 c 0,2.051 -0.189,3.78 -0.646,5.224 -0.267,0.893 -0.665,1.748 -1.045,2.432 h 5.661 V 288.65 h -3.971 v 2.413 z"
   id="path81"
   style="fill:#333535" />
		<path
   d="m 808.116,293.552 c 0,4.407 -2.678,6.744 -5.945,6.744 -3.382,0 -5.757,-2.622 -5.757,-6.497 0,-4.065 2.527,-6.725 5.946,-6.725 3.496,0 5.756,2.678 5.756,6.478 z m -9.935,0.209 c 0,2.736 1.482,5.187 4.085,5.187 2.621,0 4.104,-2.413 4.104,-5.319 0,-2.546 -1.33,-5.205 -4.085,-5.205 -2.736,-10e-4 -4.104,2.525 -4.104,5.337 z"
   id="path83"
   style="fill:#333535" />
		<path
   d="m 810.265,287.454 c 0.723,-0.152 1.862,-0.266 3.021,-0.266 1.653,0 2.717,0.285 3.515,0.931 0.665,0.494 1.064,1.254 1.064,2.261 0,1.235 -0.817,2.318 -2.166,2.812 v 0.038 c 1.216,0.304 2.641,1.311 2.641,3.21 0,1.102 -0.437,1.938 -1.083,2.564 -0.893,0.817 -2.337,1.197 -4.426,1.197 -1.141,0 -2.014,-0.076 -2.565,-0.152 v -12.595 z m 1.653,5.243 h 1.501 c 1.747,0 2.773,-0.912 2.773,-2.147 0,-1.5 -1.14,-2.09 -2.812,-2.09 -0.76,0 -1.197,0.057 -1.463,0.114 v 4.123 z m 0,6.136 c 0.323,0.057 0.798,0.076 1.387,0.076 1.71,0 3.286,-0.627 3.286,-2.489 0,-1.748 -1.5,-2.47 -3.306,-2.47 h -1.367 v 4.883 z"
   id="path85"
   style="fill:#333535" />
	</g>
</g>
</svg>